<svg width="95" height="85" viewBox="0 0 95 85" fill="none" xmlns="http://www.w3.org/2000/svg">
<path d="M33.5555 42.1521C45.7107 42.1521 55.5643 33.7528 55.5643 23.3918C55.5643 13.0308 45.7107 4.63156 33.5555 4.63156C21.4004 4.63156 11.5468 13.0308 11.5468 23.3918C11.5468 33.7528 21.4004 42.1521 33.5555 42.1521Z" stroke="black" stroke-width="2.83465" stroke-linecap="round"/>
<path d="M15.9322 20.8742L2.61328 17.7881" stroke="black" stroke-width="2.83465" stroke-linecap="round"/>
<path d="M15.9322 23.3918L3.10056 26.2342" stroke="black" stroke-width="2.83465" stroke-linecap="round"/>
<path d="M51.1788 20.7117L63.848 17.6256" stroke="black" stroke-width="2.83465" stroke-linecap="round"/>
<path d="M51.9909 24.813L63.848 26.5591" stroke="black" stroke-width="2.83465" stroke-linecap="round"/>
<path d="M12.4989 18.0068L12.7987 4.07213C12.8042 3.81722 12.8694 3.56712 12.9889 3.3419C13.1084 3.11669 13.2791 2.92261 13.4872 2.77523C13.6952 2.62784 13.9349 2.53125 14.187 2.49319C14.4392 2.45513 14.6967 2.47665 14.939 2.55605L25.1662 5.90727C25.1662 5.90727 22.8395 6.20536 18.2572 9.72831C13.6749 13.2513 12.4989 18.0068 12.4989 18.0068Z" fill="black" stroke="black" stroke-width="2.83465" stroke-linecap="round"/>
<path d="M54.5457 18.0068L54.2458 4.07213C54.2403 3.81722 54.1752 3.56712 54.0557 3.3419C53.9361 3.11669 53.7655 2.92261 53.5574 2.77523C53.3493 2.62784 53.1096 2.53125 52.8575 2.49319C52.6054 2.45513 52.3479 2.47665 52.1056 2.55605L41.8783 5.90727C41.8783 5.90727 44.2051 6.20536 48.7874 9.72831C53.3697 13.2513 54.5457 18.0068 54.5457 18.0068Z" fill="black" stroke="black" stroke-width="2.83465" stroke-linecap="round"/>
<path d="M17.3495 16.3707C17.3495 16.3707 19.2757 14.3368 21.3289 14.3368C23.3821 14.3368 25.6075 16.2083 25.6075 16.2083" stroke="black" stroke-width="2.83465" stroke-linecap="round"/>
<path d="M42 16.8308C42 16.8308 44.0118 15 45.9052 15C47.7987 15 50.3671 16.8308 50.3671 16.8308" stroke="black" stroke-width="2.83465" stroke-linecap="round"/>
<path d="M28.42 18.756C28.42 18.756 29.5442 20.5311 30.9051 20.5311C32.266 20.5311 33.5555 19.2209 33.5555 19.2209C33.5555 19.2209 34.7619 20.5311 36.467 20.5311C38.1722 20.5311 39.1297 18.756 39.1297 18.756" stroke="black" stroke-width="2.83465" stroke-linecap="round"/>
<path d="M33.0508 16.5235H34.0432C34.1438 16.5235 34.2425 16.5502 34.3294 16.6007C34.4164 16.6512 34.4884 16.7239 34.5381 16.8112C34.5879 16.8986 34.6136 16.9976 34.6128 17.0981C34.6119 17.1987 34.5844 17.2972 34.5331 17.3837L34.024 18.2421C33.9722 18.3295 33.8983 18.4018 33.8098 18.4516C33.7212 18.5015 33.6211 18.5273 33.5195 18.5263C33.4179 18.5254 33.3183 18.4977 33.2307 18.4462C33.1431 18.3946 33.0706 18.321 33.0205 18.2326L32.5443 17.3935C32.4941 17.3049 32.4679 17.2047 32.4685 17.1028C32.4691 17.001 32.4963 16.901 32.5476 16.813C32.5988 16.725 32.6723 16.652 32.7606 16.6012C32.8489 16.5505 32.949 16.5235 33.0508 16.5235Z" fill="black"/>
<path d="M18.3447 36.9346C18.3447 36.9346 18.6493 55.4585 21.4786 65.4683C24.3078 75.4782 26.3788 81.0008 28.795 81.461C31.2112 81.9212 31.2112 81.5761 31.2112 81.5761C31.2112 81.5761 29.7019 76.9107 29.4853 72.9469C29.2688 68.9832 29.4853 63.9726 29.4853 63.9726C29.4853 63.9726 25.0661 61.2113 23.2723 54.423C21.4786 47.6347 20.7411 39.8109 20.7411 39.8109L18.3447 36.9346Z" fill="black"/>
<path d="M36.9652 82.8549C36.9652 82.8549 39.6363 82.9993 40.8635 80.4004C42.0907 77.8016 45.6281 65.0959 45.6281 65.0959C45.6281 65.0959 47.5051 61.7784 49.2377 60.5479C50.9703 59.3174 51.9087 59.3174 53.497 59.3174C55.0852 59.3174 55.9182 59.9704 56.9816 61.0533C58.045 62.1361 59.505 66.1886 60.1493 69.6924C60.7936 73.1962 60.2007 82.1617 65.2641 82.494C68.682 82.494 70.1731 79.3898 70.1731 79.3898C70.1731 79.3898 73.8548 71.5932 75.0099 65.2403C76.1649 58.8875 76.0927 56.2886 75.443 51.885C74.7933 47.4813 73.2051 44.8824 73.2051 44.8824C73.2051 44.8824 74.2158 44.5215 75.5874 42.5002C76.959 40.4788 79.4135 34.9923 80.0633 31.0218C80.713 27.0513 81.2796 20.4857 83.2209 18.347C85.1622 16.2083 86.4564 16.1974 88.5825 15.2929C93.2975 13.2872 94.0126 7.39925 90.5238 4.03497C84.7364 -1.54574 76.6184 6.77885 75.6407 7.82508C73.8843 9.70458 71.6657 14.5649 71.1111 18.347C70.5564 22.1291 70.5786 29.7331 70.0942 32.6918C69.6098 35.6505 68.3704 37.5663 66.9512 39.625C66.9512 39.625 62.4999 36.9345 59.7408 36.9345C56.9816 36.9345 53.732 37.961 52.6228 38.2383C51.5135 38.5157 49.3465 39.2161 48.1856 37.961C47.6253 37.3554 46.39 38.7006 46.39 38.7006L46.2116 40.7534C46.2116 40.7534 42.6799 42.9725 40.7332 44.3837C38.7865 45.7948 34.8999 49.9659 33.5555 54.6412C32.9483 56.7529 31.2111 65.1943 31.7357 70.8167C32.0288 73.9576 32.6205 78.8311 33.9737 81.2103C35.0428 83.0901 36.9652 82.8549 36.9652 82.8549Z" fill="black"/>
<path d="M50.5039 77.8099C51.0734 79.543 51.753 81.7004 55.0238 81.1732C58.2947 80.646 57.5588 77.3968 57.5716 75.1778C57.583 72.9588 56.8224 66.7094 56.5597 65.5754C56.297 64.4415 54.2734 62.4585 51.5392 63.1383C48.805 63.818 47.8419 65.8729 48.1759 68.0613C48.51 70.2497 49.9343 76.0768 50.5039 77.8099Z" fill="black"/>
</svg>
